<svg xmlns="http://www.w3.org/2000/svg" viewBox="0 0 48 48" width="48px" height="48px">
  <path fill="#FFC107" d="M43.611 20.083h-1.494V20H24v8h11.303C33.64 32.91 29.257 36 24 36c-6.627 0-12-5.373-12-12s5.373-12 12-12c3.059 0 5.84 1.156 7.961 3.039l5.657-5.657C34.136 6.599 29.357 4 24 4 12.954 4 4 12.954 4 24s8.954 20 20 20c11.046 0 20-8.954 20-20 0-1.341-.138-2.651-.389-3.917z"/>
  <path fill="#FF3D00" d="M6.306 14.691l6.571 4.819C14.463 15.108 18.858 12 24 12c3.059 0 5.84 1.156 7.961 3.039l5.657-5.657C34.136 6.599 29.357 4 24 4 16.319 4 9.508 8.339 6.306 14.691z"/>
  <path fill="#4CAF50" d="M24 44c5.192 0 9.918-1.982 13.495-5.205l-6.252-5.392C29.178 35.091 26.715 36 24 36c-5.236 0-9.614-3.081-11.291-7.454l-6.572 5.059C9.485 39.646 16.227 44 24 44z"/>
  <path fill="#1976D2" d="M43.611 20.083h-1.494V20H24v8h11.303c-1.358 3.91-5.741 7-11.303 7-5.236 0-9.614-3.081-11.291-7.454l-6.572 5.059C9.485 39.646 16.227 44 24 44c11.046 0 20-8.954 20-20 0-1.341-.138-2.651-.389-3.917z"/>
</svg>
